<?xml version="1.0" ?>
<!DOCTYPE svg  PUBLIC '-//W3C//DTD SVG 1.1//EN'  'http://www.w3.org/Graphics/SVG/1.1/DTD/svg11.dtd'>
<!-- Uploaded to: SVG Repo, www.svgrepo.com, Generator: SVG Repo Mixer Tools -->
<svg fill="#000000" width="800px" height="800px" viewBox="0 0 512 512" enable-background="new 0 0 512 512" id="Layer_1" version="1.1" xml:space="preserve" xmlns="http://www.w3.org/2000/svg" xmlns:xlink="http://www.w3.org/1999/xlink">
<g>
<g>
<path d="M214.833,225.308H214.5c-5.522,0-10-4.477-10-10s4.478-10,10-10h0.333c5.522,0,10,4.477,10,10    S220.355,225.308,214.833,225.308z"/>
</g>
<g>
<path d="M286.833,225.308H286.5c-5.522,0-10-4.477-10-10s4.478-10,10-10h0.333c5.522,0,10,4.477,10,10    S292.355,225.308,286.833,225.308z"/>
</g>
<g>
<path d="M364.5,387.115h-217c-12.131,0-22-9.869-22-22V65.5c0-12.131,9.869-22,22-22h217c12.131,0,22,9.869,22,22v299.615    C386.5,377.246,376.631,387.115,364.5,387.115z M147.5,63.5c-1.103,0-2,0.897-2,2v299.615c0,1.103,0.897,2,2,2h217    c1.103,0,2-0.897,2-2V65.5c0-1.103-0.897-2-2-2H147.5z"/>
</g>
<g>
<path d="M364.5,387.115h-101c-12.131,0-22-9.869-22-22V65.5c0-12.131,9.869-22,22-22h101c12.131,0,22,9.869,22,22v299.615    C386.5,377.246,376.631,387.115,364.5,387.115z M263.5,63.5c-1.103,0-2,0.897-2,2v299.615c0,1.103,0.897,2,2,2h101    c1.103,0,2-0.897,2-2V65.5c0-1.103-0.897-2-2-2H263.5z"/>
</g>
<g>
<path d="M376.5,429.5h-241c-5.522,0-10-4.477-10-10v-47c0-5.523,4.478-10,10-10h241c5.522,0,10,4.477,10,10v47    C386.5,425.023,382.022,429.5,376.5,429.5z M145.5,409.5h221v-27h-221V409.5z"/>
</g>
<g>
<path d="M135.5,468.5c-5.522,0-10-4.477-10-10v-39c0-5.523,4.478-10,10-10s10,4.477,10,10v39    C145.5,464.023,141.022,468.5,135.5,468.5z"/>
</g>
<g>
<path d="M376.5,468.5c-5.522,0-10-4.477-10-10v-39c0-5.523,4.478-10,10-10s10,4.477,10,10v39    C386.5,464.023,382.022,468.5,376.5,468.5z"/>
</g>
</g>
</svg>